<?xml version="1.0" encoding="UTF-8"?>
<svg width="372px" height="387px" viewBox="0 0 372 387" version="1.1" xmlns="http://www.w3.org/2000/svg" xmlns:xlink="http://www.w3.org/1999/xlink">
    <!-- Generator: Sketch 61.2 (89653) - https://sketch.com -->
    <title>openpeeps / cloth / Thunder T-Shirt</title>
    <desc>Created with Sketch.</desc>
    <g id="openpeeps-/-cloth-/-Thunder-T-Shirt" stroke="none" stroke-width="1" fill="none" fill-rule="evenodd">
        <path d="M183.237446,1.49834782 C189.956946,-0.361652178 197.681446,-0.145152178 204.575446,0.330347822 C211.576446,0.813847822 219.088946,1.64284782 225.658446,4.25684782 C231.369446,6.52934782 236.185446,10.3508478 239.119946,15.8268478 C241.532446,20.3283478 242.663946,25.2653478 243.372946,30.2798478 C243.662946,32.3319907 243.905752,34.3889805 244.136714,36.4479018 L244.61136,40.7314181 C244.797383,42.3694416 244.959571,43.5974728 245.285446,45.4248478 C246.186946,50.4793478 247.442446,54.7023478 250.245446,58.3798478 C257.033446,67.2828478 268.117446,70.2628478 278.196946,74.0628478 C284.646946,76.4943478 289.754446,80.8683478 291.171446,87.8968478 C292.538636,94.6773578 344.52015,151.56303 349.623255,156.358578 L349.763446,156.487848 C353.721946,160.051848 353.255946,166.751348 353.809946,171.642848 C354.403446,176.887348 354.968446,182.135848 355.504946,187.385848 C356.593946,198.052348 357.564446,208.730348 358.415946,219.417348 C361.745131,261.214227 363.255594,303.156566 362.934573,345.084108 L362.914446,347.457348 C362.864946,352.778348 362.904446,358.122848 362.665946,363.438848 C362.436446,368.547848 360.890446,373.661348 356.156446,376.329848 C351.770661,378.802397 346.224746,378.584634 341.323248,378.831456 L341.029946,378.846848 C335.770446,379.134848 330.508946,379.370848 325.244946,379.565848 C303.851946,380.357348 282.439446,380.442848 261.033946,380.344348 C218.568946,380.148848 176.061446,379.215348 133.636446,381.592848 C122.821946,382.198848 88.3449455,378.516348 77.5644455,379.565848 C67.2604455,380.568348 76.1014455,385.621848 69.7359455,385.288848 C48.8018587,384.193718 28.9449455,379.522848 8.88794552,373.896348 C6.38244552,373.193848 4.46644552,370.762348 4.49755396,368.133848 C4.87044552,339.264848 5.68544552,310.403348 6.95894552,281.560348 C8.09344552,255.867348 9.58844552,230.190348 11.4429455,204.539348 C12.249258,193.38966 13.1233283,182.244567 14.0651565,171.105406 L14.4729455,166.331848 C15.0049455,160.175848 15.3109455,153.906848 16.5214455,147.836348 C17.7189455,141.832348 20.4354455,136.625848 24.3744455,131.973848 C27.9089455,127.800348 67.9264455,95.1283478 77.5644455,88.9428478 C86.7894455,83.0218478 96.4764455,78.0268478 105.946946,72.5393478 C109.886946,70.2563478 113.670956,71.0779 117.036956,68.2754 C118.811531,66.79832 144.559832,56.844304 151.506732,53.5598205 L151.711446,53.4623478 C157.028446,50.9113478 161.921446,48.1453478 165.595446,43.7343478 C166.826946,42.2558478 169.242446,32.9403478 169.246946,29.9638478 C169.255446,24.6468478 168.852446,19.0458478 170.456446,13.8953478 C172.374446,7.73634782 176.997446,3.22534782 183.237446,1.49834782 Z M194.629171,138.594322 L153.485452,218.719598 L180.239333,218.719598 L161.062031,263.238211 L203.176622,263.238211 L188.237224,325.59532 L273.67122,218.719598 L241.611847,218.719598 L273.67122,176.640169 L251.435498,176.640169 L273.67122,141.004349 L194.629171,138.594322 Z" id="ðŸŽ¨-Background" fill="#FFFFFF"></path>
        <path d="M332.8394,183.6504 C332.7444,183.7449 332.6444,183.8404 332.5494,183.9404 C332.6594,183.7854 332.7544,183.6249 332.8394,183.4654 L332.8394,183.6504 Z M252.8794,160.3099 C249.1844,165.0304 245.2744,174.6354 241.6844,179.4404 C241.1694,180.1299 240.6644,180.8204 240.1644,181.5149 C238.6744,183.5999 240.6644,186.7899 243.1144,186.6554 C248.0094,186.3949 252.8994,186.0304 257.7894,185.6604 C247.7444,196.8549 239.4044,210.7604 230.1794,222.6199 C229.5544,223.4149 228.9394,224.2154 228.3244,225.0149 C225.9894,228.0599 228.3294,229.4404 231.5194,228.6199 C232.1794,228.4504 232.8394,228.2804 233.4994,228.1154 C238.1394,226.9254 242.7744,225.7354 247.4144,224.5504 C249.9794,223.8899 252.5594,223.0754 255.1594,222.5704 C256.2294,222.3654 257.2544,222.5354 258.2644,222.5904 C257.7794,223.3299 257.0994,224.6649 256.9644,224.8699 C255.4494,227.2299 253.9244,229.5799 252.3894,231.9199 C249.3994,236.4704 246.3944,241.0149 243.2794,245.4799 C231.1294,262.8899 218.0244,279.5104 205.0344,296.2854 C201.7644,300.5049 198.4494,304.6804 195.0794,308.8154 C195.0944,308.7899 195.1044,308.7649 195.1194,308.7404 C198.1544,302.8299 201.1894,296.9254 204.2244,291.0149 C209.9944,279.7854 215.7094,268.5254 221.5394,257.3254 C221.8394,256.7404 222.1444,256.1604 222.4494,255.5754 C223.6594,253.2549 221.6744,250.8454 219.1894,251.3349 C207.0664,253.7234 195.0609,256.6584 183.2044,260.1339 C182.6709,260.7024 181.8864,260.8689 181.1859,260.7314 C180.7094,260.8739 180.2309,261.0109 179.7544,261.1554 C179.8989,260.8559 180.0484,260.5594 180.1939,260.2609 C179.7094,259.8399 179.4684,259.1884 179.7834,258.3749 C186.6059,240.7709 195.9599,223.7764 207.0429,208.2124 C206.5969,208.2209 206.1519,208.2274 205.7044,208.2404 C193.5394,208.5704 181.6044,210.3154 169.8794,213.6299 C169.8244,212.5449 170.4794,210.8654 170.8344,210.0654 C172.2544,206.8699 173.8844,203.7499 175.4094,200.6049 C178.5294,194.1449 181.6494,187.6904 184.7694,181.2299 C187.8194,174.9199 190.8444,168.5904 193.7144,162.1904 C195.2194,158.8349 196.7244,155.4749 198.2244,152.1154 C199.4494,149.3799 200.4144,146.6249 201.4294,143.8254 C204.4094,144.7004 242.6744,144.8899 251.9744,145.5354 C254.2544,145.6954 256.5394,145.8404 258.8244,145.9654 C260.6444,146.0704 263.2094,146.4704 264.4644,144.8254 L264.9394,145.2249 C260.8094,150.1649 256.8494,155.2404 252.8794,160.3099 L252.8794,160.3099 Z M103.4844,68.5304 C103.6744,68.4454 103.8594,68.3604 104.0444,68.2754 C104.1394,68.4104 104.2544,68.5354 104.3744,68.6604 C104.6744,68.9654 104.9694,69.2949 105.2794,69.5954 C104.6794,69.2449 104.0794,68.8899 103.4844,68.5304 L103.4844,68.5304 Z M370.9044,349.5254 C370.5594,342.2404 370.1744,334.9549 369.7644,327.6699 C368.9544,313.4304 368.1194,299.1904 367.0044,284.9704 C364.7394,256.1554 362.6294,227.3499 359.2344,198.6399 C357.8094,186.6049 355.8194,174.6604 353.8244,162.7099 C354.0794,162.4799 354.3394,162.2499 354.5944,162.0254 C354.3194,165.2949 358.7594,167.3654 360.9594,164.1049 C361.1244,163.8604 361.2844,163.6154 361.4444,163.3604 C363.3494,160.2804 367.7394,145.1699 367.4344,143.8899 C366.8844,141.5849 365.3544,139.5354 364.1594,137.5054 C363.1144,135.7299 362.0594,133.9549 360.9894,132.1954 C358.8544,128.6699 356.6544,125.1804 354.3494,121.7649 C349.5744,114.6954 344.3544,107.9054 338.2044,101.9704 C331.8394,95.8204 324.5344,90.7649 316.9894,86.1804 C313.3644,83.9799 309.6244,81.9854 305.8144,80.1249 C302.0544,78.2949 297.9394,76.2699 293.8894,75.2299 C293.6594,75.1699 293.4244,75.4904 293.6344,75.6604 C294.7094,76.5104 295.8344,77.3099 296.9794,78.0799 C293.8794,77.0054 290.6844,76.2299 287.4644,75.9549 C281.2294,73.7649 274.9194,71.7604 268.7144,69.4749 C262.6144,67.2249 256.6044,64.6954 252.5494,59.3654 C249.0844,54.8099 246.8944,49.2354 245.2094,43.8054 C243.3594,37.8204 242.6244,31.5999 240.9144,25.6049 C240.7794,25.1199 239.9844,25.0649 239.8794,25.6049 C238.6594,31.8949 238.7144,38.9654 239.4094,45.3149 C240.1394,51.9749 242.0144,58.5104 246.0944,63.9254 C250.8344,70.2204 257.2644,73.7249 264.4994,76.5199 C270.3344,78.7804 276.2444,81.0799 282.2194,83.0999 C281.4394,83.6104 280.6494,84.1199 279.8344,84.6049 C276.5944,86.5304 273.2244,88.2404 269.7794,89.7754 C263.4894,92.5799 256.8644,94.6804 250.1994,96.3854 C237.7944,99.5449 225.0744,101.1504 212.2844,101.3604 C186.6944,101.7854 160.8194,96.4254 137.4144,86.0754 C130.8244,83.1604 124.3894,79.9549 118.0194,76.5904 C116.0294,75.5399 114.0294,74.4799 112.0394,73.3899 C112.2044,73.3804 112.3744,73.3654 112.5394,73.3499 C116.9844,72.9304 121.3744,72.0754 125.6744,70.8654 C134.4794,68.3804 142.9194,64.5054 151.2094,60.6899 C158.2394,57.4549 165.4794,53.7699 169.7744,47.0304 C172.0694,43.4254 173.1244,39.1954 173.9794,35.0554 C174.9344,30.4454 176.0594,25.8149 176.7544,21.1604 C176.9994,19.5304 176.6344,17.3254 174.8844,16.5554 C174.1844,16.2499 173.6094,15.9999 172.8244,15.9999 C171.0894,15.9999 169.3094,17.2604 168.8944,18.9904 C167.8694,23.3054 167.2494,27.7404 166.4444,32.0999 C165.7494,35.8699 165.1144,39.8054 163.0794,43.1199 C159.5244,48.9254 152.5544,51.8949 146.6644,54.7204 C139.1994,58.3004 131.7294,61.7899 123.9744,64.6954 C120.5594,65.9749 117.0844,67.1354 113.5594,68.0849 C113.6994,67.2204 113.5794,66.3099 113.0694,65.6249 C112.2194,64.4949 111.2544,63.7449 110.1594,62.8804 C108.9694,61.9399 107.3694,61.4504 105.9644,61.8654 C105.9644,61.8699 105.9594,61.8654 105.9594,61.8654 C105.3894,61.7404 104.7594,61.7899 104.1094,62.0849 C102.0994,63.0054 100.0944,63.9349 98.0894,64.8804 C69.2444,78.4504 41.2194,94.3899 19.9944,118.6649 C16.9344,122.1649 14.0694,125.8454 11.3844,129.6399 C8.7744,133.3254 5.5444,137.3254 4.8244,141.8949 C4.7644,142.2754 5.3194,142.4504 5.4144,142.0599 C5.5844,141.3549 5.8144,140.6649 6.0994,139.9949 C5.5044,142.0754 5.5394,144.2854 6.3794,146.4599 C7.3744,149.0199 9.1994,150.7154 11.5044,151.3899 C9.1894,161.5354 7.6344,171.8154 6.3844,182.2099 C4.5894,197.1849 3.3144,212.1954 2.3544,227.2449 C0.4344,257.2804 -0.4206,287.4654 0.1994,317.5554 C0.3744,326.0599 0.6644,334.5654 1.1044,343.0654 C1.3244,347.3154 1.5644,351.5599 1.8394,355.8099 C2.1094,359.9904 1.8894,364.5954 5.5344,366.8004 C5.5794,366.9654 5.6294,367.1249 5.6744,367.2899 C6.5594,370.3749 10.5044,369.3854 10.8744,366.5849 C10.8794,366.5554 10.8844,366.5199 10.8894,366.4904 C13.8694,364.2154 13.4194,360.4254 13.1994,356.7899 C12.9644,352.8654 12.7144,348.9454 12.5044,345.0254 C12.1044,337.5049 11.7644,329.9854 11.4594,322.4599 C10.8644,307.5799 10.5294,292.6804 10.4194,277.7899 C10.1994,248.0049 11.9194,218.2649 13.9594,188.5654 C14.8144,176.1399 15.8144,163.7699 16.1194,151.3499 C17.7144,150.5199 18.2044,148.1604 17.4044,146.5704 C36.2944,159.4599 53.8244,174.8699 67.8994,192.7804 C70.2494,195.7699 72.4944,198.8499 74.6444,201.9854 C75.3444,203.0049 76.0094,204.0654 76.6794,205.1249 C76.0294,208.0799 75.5244,211.0849 74.8644,213.9199 C73.5044,219.7754 72.9294,225.8499 72.1494,231.8004 C70.5644,243.8854 69.4494,256.0799 68.5044,268.2299 C66.6444,292.2249 65.2644,316.2154 64.8294,340.2804 C64.5894,353.8899 64.2694,367.5849 64.8694,381.1904 C64.4244,383.8499 66.8194,386.4504 69.3244,386.7854 C71.5194,387.0799 73.5694,385.9404 74.5294,384.1049 C81.3694,384.9549 88.3894,385.3454 95.1844,385.3949 C104.3394,385.4599 113.4944,385.4504 122.6494,385.2549 C140.9644,384.8549 159.2744,384.3854 177.5844,383.8404 C214.2044,382.7604 250.8244,381.6754 287.4494,380.5904 C297.6044,380.2899 307.7594,379.9904 317.9144,379.6904 C322.4944,379.5554 328.2044,380.8749 331.8144,377.3404 C332.4344,376.7299 332.9144,376.0149 333.2544,375.2499 C334.3344,375.5199 335.6594,375.2549 336.3694,374.4199 C337.6944,372.8549 338.6694,371.4054 338.6194,369.2354 C338.5744,367.2049 338.0144,365.0654 337.7244,363.0554 C337.1744,359.2804 336.6444,355.5049 336.1394,351.7249 C335.1444,344.2549 334.2144,336.7754 333.3594,329.2899 C331.6094,313.9854 330.0194,298.6449 328.7794,283.2899 C326.3194,252.9254 325.6244,222.4004 325.7094,191.9404 C325.7194,189.2154 325.7344,186.4904 325.7494,183.7649 C325.8644,183.9104 325.9894,184.0449 326.1244,184.1604 C326.2344,184.2549 326.3444,184.3499 326.4544,184.4504 C327.7344,185.5754 329.8644,186.1554 331.3994,185.0904 C333.2844,183.8699 334.5844,182.0399 336.0544,180.3854 C337.5994,178.6504 339.1894,176.9599 340.7944,175.2804 C343.9044,172.0304 347.1194,168.9149 350.3994,165.8349 C350.6644,165.5904 350.9294,165.3404 351.1944,165.0999 C351.2144,174.7949 351.2044,184.4854 351.4644,194.1754 C351.8544,208.5704 352.6344,222.9504 353.3494,237.3254 C354.7694,265.7899 356.2394,294.2449 357.6544,322.7049 C358.0494,330.6504 358.4244,338.5999 358.8194,346.5449 C359.0194,350.5199 359.2144,354.4949 359.4044,358.4704 C359.5044,360.6199 359.6044,362.7754 359.7044,364.9254 C359.8144,367.2354 359.6694,369.7049 360.4494,371.9004 C362.2244,376.9199 369.8944,377.6299 371.3694,371.9004 C372.2944,368.3054 371.5844,364.1449 371.4194,360.4549 C371.2494,356.8154 371.0794,353.1699 370.9044,349.5254 L370.9044,349.5254 Z" id="ðŸ–-Ink" fill="#000000"></path>
    </g>
</svg>