<?xml version="1.0" encoding="UTF-8"?>
<svg width="399px" height="386px" viewBox="0 0 399 386" version="1.1" xmlns="http://www.w3.org/2000/svg" xmlns:xlink="http://www.w3.org/1999/xlink">
    <!-- Generator: Sketch 61.2 (89653) - https://sketch.com -->
    <title>openpeeps / cloth /  Fur Jacket</title>
    <desc>Created with Sketch.</desc>
    <g id="openpeeps-/-cloth-/--Fur-Jacket" stroke="none" stroke-width="1" fill="none" fill-rule="evenodd">
        <path d="M36.8506,376.5956 C39.4871,380.6011 44.6731,379.9851 46.8996,376.8826 C72.2526,382.7896 98.2441,380.4616 123.9496,379.0136 C196.3861,376.0661 269.2311,385.3051 341.3746,375.6401 C349.0276,374.1096 357.9351,374.8411 364.1971,369.5331 C374.2126,357.7966 372.0556,339.9771 370.4601,325.6821 C357.6716,245.1001 339.490094,163.77916 330.420594,82.6791602 C329.914094,74.9541602 333.0976,65.3556 335.9516,58.0936 C336.6566,56.7426 341.1121,55.4186 343.4241,53.8601 C350.5196,48.7671 349.3691,39.6401 343.2181,34.2846 C323.3026,20.2466 295.578637,25.1519603 274.45215,30.3312 C270.403465,15.1247674 265.852417,5.12353856 258.143734,4.1331 C243.471434,2.24795145 207.879912,-3.51276336 196.916665,4.1331 C191.671868,7.79086637 188.30545,20.6794406 184.5301,26.9581 C156.9966,26.4691 101.1151,-10.3679 89.6266,31.1136 C80.2926,31.7581 71.0476,39.9071 72.8331,49.6861 C60.7276,60.3831 70.2756,76.4226 70.1081,89.7371 C68.5166,117.9866 53.2306,143.2506 46.8711,170.5396 C32.3346,223.4671 15.8816,319.7416 33.9111,371.4041 C33.5231,371.2016 32.6756,371.5066 33.2246,371.9361 C35.2661,372.5121 35.5316,375.0836 36.8506,376.5956 Z" id="ðŸŽ¨-Background" fill="#FFFFFF"></path>
        <path d="M353.40165,363.1357 C350.02015,335.9887 347.66865,303.2172 347.641649,275.8437 C347.63915,273.2657 351.63915,273.2702 351.641649,275.8437 C351.66865,303.2172 354.02015,335.9887 357.40165,363.1357 C357.71965,365.6877 353.71565,365.6562 353.40165,363.1357 M328.35165,194.8132 C323.12665,198.0087 316.26515,195.7922 311.09415,193.6762 C308.73965,192.7127 309.77665,188.8447 312.15715,189.8192 C316.09265,191.4297 321.84465,193.8007 325.99815,191.5547 C330.14365,189.3127 330.33065,183.1457 330.36165,179.0762 C330.38115,176.4992 334.38065,176.5012 334.361717,179.0762 C334.31965,184.6127 333.57915,191.6152 328.35165,194.8132 M318.68015,319.0422 C313.40865,316.3402 308.91065,312.6462 305.29065,307.9572 C303.71715,305.9187 307.19365,303.9292 308.74465,305.9382 C311.93065,310.0652 316.08165,313.2217 320.69915,315.5887 C322.99315,316.7647 320.96665,320.2147 318.68015,319.0422 M293.34215,179.4412 C284.29715,215.6867 278.22715,252.5812 275.25215,289.8212 C274.64715,297.3812 274.22215,304.9312 273.98215,312.4862 C273.74215,314.4562 273.51215,316.4312 273.29715,318.4062 C272.48215,325.8757 271.85715,333.4662 271.91215,340.9862 C271.93715,344.3612 272.04215,347.7212 272.27215,351.0857 C271.87215,349.9607 271.50215,348.8312 271.14215,347.7062 C270.40715,345.4012 269.92215,343.0112 269.17215,340.7212 C268.55215,338.8262 267.75215,337.0112 267.00715,335.1762 L267.00715,335.1712 C267.23215,327.6562 266.72215,320.0712 266.46215,312.5912 C266.12715,302.9012 265.71215,293.2212 265.49715,283.5262 C265.06715,264.1362 265.28215,244.7312 265.98215,225.3517 C267.38715,186.3012 270.93715,147.4367 274.51715,108.5462 C275.51215,97.7312 276.58215,86.9212 277.32215,76.0857 C278.06715,65.1362 278.36715,54.1662 278.45215,43.1867 C278.45715,42.3962 277.25715,42.1867 277.03715,42.9512 C276.84215,40.3462 276.49715,37.7462 275.92215,35.2312 C284.54715,40.7312 293.64215,45.4862 302.55715,50.4862 C307.25215,53.1212 311.92715,55.8012 316.76715,58.1612 C319.42715,59.4607 322.11215,60.6562 324.85215,61.7862 C327.69215,62.9562 330.40715,64.5662 333.53215,63.7507 C333.80215,63.6812 334.05715,63.5812 334.30215,63.4512 C333.94715,64.1257 333.59215,64.7962 333.25215,65.4767 C332.07215,67.8212 330.94715,70.1762 329.85715,72.5512 C329.56715,72.7662 329.31215,73.0617 329.11215,73.4462 C328.58215,74.4812 328.06715,75.5262 327.56715,76.5857 C327.46715,76.4912 327.36715,76.3962 327.26715,76.3012 C326.84715,75.9062 326.26715,76.5007 326.63715,76.9312 C326.80715,77.1257 326.97215,77.3162 327.13715,77.5112 C323.87715,84.5262 321.22715,91.9012 318.49715,99.1017 C315.14215,107.9512 311.96215,116.8662 308.96715,125.8412 C303.06215,143.4962 297.85215,161.3812 293.34215,179.4412 M164.02715,310.9787 C147.35665,319.9062 131.77865,330.5752 116.79565,342.0827 C114.75315,343.6512 112.76315,340.1747 114.77665,338.6287 C129.75965,327.1217 145.33815,316.4522 162.00865,307.5242 C164.27965,306.3087 166.29765,309.7627 164.02715,310.9787 M107.72215,206.4197 C106.85565,206.3552 106.01365,205.8527 105.79365,204.9517 C104.44315,199.4227 103.38565,193.3997 104.64165,187.7602 C105.20165,185.2447 109.05715,186.3152 108.49865,188.8232 C107.50815,193.2702 108.29515,198.0772 109.32365,202.5117 C123.86315,203.1482 138.20765,197.9307 152.11815,194.4272 C154.61965,193.7972 155.67615,197.6562 153.18165,198.2842 C138.42565,202.0002 123.16265,207.5627 107.72215,206.4197 M397.17215,353.9012 C397.18715,353.8662 397.20215,353.8262 397.21215,353.7912 C398.06715,351.2012 398.08715,348.1912 398.18215,345.4767 C398.34715,340.6462 398.17215,335.8062 397.73715,330.9912 C396.81715,320.8562 394.83715,310.8862 392.47215,301.0007 C387.78715,281.4212 381.16715,262.3712 377.57215,242.5262 C370.51715,203.5712 372.19215,163.0112 358.34715,125.4367 C352.59215,109.8162 344.37215,94.8012 333.20215,82.3912 C334.01715,79.9112 334.81215,77.4262 335.58715,74.9312 C336.94215,70.5912 338.32715,66.1112 339.16215,61.6412 C339.18215,61.5212 339.20715,61.3962 339.22215,61.2712 C343.97715,59.2212 348.30215,55.3562 349.04215,50.2162 C349.36215,47.9962 348.99215,45.5362 348.03215,43.3912 C349.99215,41.5812 351.25215,39.2312 350.95215,36.0812 C350.39215,30.1512 343.46715,28.6257 338.64715,27.4662 C333.16715,26.1512 327.48215,25.7862 321.87715,26.4062 C319.04715,26.7162 316.24715,27.2362 313.51215,28.0162 C311.13715,28.6912 308.55215,29.3862 306.64715,31.0162 C306.42215,31.2062 306.60715,31.5762 306.87715,31.5762 C310.73215,31.5617 314.57215,30.1462 318.46715,29.9607 C322.54715,29.7712 326.61715,30.1062 330.61715,30.9462 C334.52715,31.7662 338.42715,32.9662 341.98215,34.8212 C342.98215,35.3462 344.44715,35.7012 343.27215,36.7612 C342.41215,37.5362 340.72215,37.6017 339.61715,37.7162 C337.17215,37.9712 335.06215,39.4012 334.75215,42.0112 C334.47715,44.3162 335.85215,46.9262 338.30215,47.4462 C338.43715,47.4767 338.56215,47.5112 338.67215,47.5562 C338.73715,47.6812 338.83715,47.7862 338.82715,47.6162 C338.82715,47.6162 338.83215,47.6112 338.83215,47.6162 C338.89215,47.9812 338.91215,48.1257 338.91215,48.1512 C338.89715,48.1212 338.87215,47.9962 338.85215,47.8962 C338.86715,47.9862 338.89715,48.1312 338.93715,48.3462 C338.88215,48.1112 338.92715,48.6867 338.88215,48.7762 C337.58215,51.1762 333.73715,51.8517 331.49715,52.8862 C331.06215,53.0857 330.68715,53.3212 330.36715,53.5857 C329.83715,53.4012 329.29715,53.2162 328.75215,53.0112 C326.06715,52.0062 323.38715,51.0312 320.66715,50.1257 C315.41715,48.3712 310.10215,46.8062 304.85215,45.0462 C294.91215,41.7162 285.30215,37.5112 275.54715,33.7012 C275.23715,32.5512 274.87715,31.4262 274.45215,30.3312 C274.36715,30.1017 273.95715,30.0262 273.91215,30.3312 C273.76215,31.3012 273.64215,32.2762 273.54215,33.2562 C273.50215,33.3462 273.49215,33.4462 273.51215,33.5412 C272.94715,39.2412 273.09715,45.0762 272.80715,50.7712 C272.44715,57.8712 271.44215,64.9212 271.15715,72.0262 L271.15715,72.1562 C270.10715,78.2212 269.15715,84.3062 268.29715,90.4112 C267.33215,90.1112 266.22715,90.1712 265.09715,90.7762 C257.10715,95.0412 248.12715,97.4162 239.09215,97.9462 C234.54215,98.2107 230.03715,98.0617 225.51215,97.5362 C222.53715,97.1962 219.60715,96.5762 216.67215,95.9862 C218.21715,89.5112 219.87715,83.0662 221.75215,76.6867 C223.29715,71.4412 225.01715,66.2212 227.14215,61.1762 C229.28715,56.0812 231.95715,51.2162 234.44215,46.2762 C235.58715,43.9912 234.23715,40.4962 231.26215,40.7362 C230.38215,40.8062 229.50215,40.8612 228.61715,40.9012 C220.00715,41.3117 211.05215,40.3517 202.55215,39.4962 C192.87715,38.5162 183.07215,37.5007 173.48215,35.9062 C172.77215,35.7912 172.48215,36.7562 173.18215,36.9912 C177.73215,38.5212 182.22715,40.2507 186.89215,41.3962 C191.69215,42.5812 196.52215,43.6612 201.39215,44.5062 C206.05715,45.3117 210.74215,45.9862 215.44215,46.5562 C218.50715,46.9312 221.60715,47.1212 224.69215,47.3712 C220.53715,54.0112 217.67215,61.5007 215.17715,68.8757 C211.97215,78.3462 209.61715,88.0912 207.31215,97.8162 C202.38215,118.6612 198.31715,139.7162 195.13715,160.9012 C192.85715,176.0912 191.01215,191.3412 189.62715,206.6312 C189.21715,201.9862 188.71715,197.3562 188.15215,192.7312 C186.26215,177.3757 183.50215,162.1212 179.81215,147.0962 C180.14215,146.5162 180.29715,145.8212 180.18715,145.1462 C179.52215,141.0162 177.77215,137.4212 176.23715,133.5912 C174.71215,128.2412 173.06715,122.9262 171.29715,117.6512 C169.28715,110.4662 167.03215,103.3912 164.14715,96.4812 C161.94215,91.2162 159.42715,86.0857 156.62715,81.1112 C153.28215,74.1562 149.60715,67.3517 145.57215,60.8462 C145.36215,60.2412 145.02215,59.6762 144.53715,59.2012 C143.80215,58.0412 143.05715,56.8962 142.29715,55.7612 C141.80215,55.0212 140.38215,55.4712 140.75715,56.4112 C140.93215,56.8517 141.10715,57.2912 141.28715,57.7267 C124.85215,53.6162 108.73715,59.9012 93.08215,64.5412 C89.13215,65.7162 85.14215,66.7762 81.09215,67.5412 C77.90715,68.1412 74.19715,68.8712 71.02215,68.2107 C68.89715,67.7712 67.95715,66.8062 68.99215,64.5362 C70.06215,62.1867 72.98215,60.6412 75.51715,59.6017 C76.47215,59.3962 77.41215,59.0312 78.31715,58.4812 C80.42715,57.2012 81.35215,54.5312 80.35715,52.2562 C79.45215,50.2012 76.81215,48.4312 74.47715,49.3712 C74.14215,49.5062 73.81215,49.6362 73.48215,49.7662 C73.44715,49.7162 73.40715,49.6462 73.37215,49.5462 C73.03715,48.6312 72.89215,49.7267 73.03715,48.4162 C73.27715,46.2762 75.54215,44.3312 77.09215,43.1062 C80.94715,40.0512 86.51715,37.7912 91.49215,38.9462 C91.86715,39.0312 92.24215,39.1362 92.61215,39.2662 C97.73715,41.0412 100.23215,33.6612 96.13715,30.9112 C95.88715,30.7462 95.57215,30.5362 95.22715,30.2912 C93.52215,29.1062 91.02715,27.1112 91.70715,25.3117 C92.54715,23.0762 97.50215,21.7912 99.37715,21.0312 C106.15715,18.2812 113.48215,16.7212 120.79215,16.4012 C128.14715,16.0812 135.59715,16.8912 142.69215,18.8757 C146.17215,19.8462 149.74715,21.3212 153.03715,22.8117 C155.99215,24.1462 162.42215,25.9112 162.83215,29.6512 C162.92215,30.4767 164.09715,30.7562 164.35215,29.8562 C166.36715,22.6762 158.54715,18.0412 153.38715,15.0762 C150.00215,13.1257 146.16215,11.9112 142.44715,10.7162 C138.88715,9.5662 135.25215,8.7212 131.54215,8.2107 C123.57715,7.1212 115.51715,7.2612 107.61715,8.7912 C100.42215,10.1867 92.41715,12.5662 86.60215,17.1962 C83.03215,20.0362 81.41715,24.5562 82.85215,28.9662 C82.90215,29.1112 82.95215,29.2612 83.00215,29.4062 C76.57715,30.5562 70.49715,34.2362 66.43215,39.3662 C63.09215,43.5812 61.34215,49.4462 64.33215,54.3517 C64.20715,54.4412 64.08215,54.5362 63.96215,54.6362 C61.11215,56.9162 58.99215,60.2267 58.36215,63.8462 C57.12715,70.9862 61.44215,75.9812 67.47715,77.8912 C65.98215,79.3517 64.54715,80.9012 63.14215,82.4512 C59.99715,85.9262 56.99215,89.7107 54.34215,93.5712 C48.97215,101.3912 44.38215,109.9062 40.36715,118.4862 C32.11215,136.1062 26.90715,155.0712 24.14715,174.3012 C22.75715,183.9912 21.82715,193.7312 21.47215,203.5112 C21.06215,214.6612 21.47715,225.8162 21.26215,236.9712 C21.05215,247.6912 19.86715,258.1512 17.47215,268.6017 C15.17715,278.5962 12.11715,288.3912 9.34715,298.2562 C6.22215,309.3662 2.78215,320.4262 1.13215,331.8812 C0.29715,337.7107 -0.30285,343.5562 0.16215,349.4512 C0.63215,355.4562 2.81215,360.5912 4.82215,366.1762 C5.33215,367.6017 6.88715,368.1762 8.13215,367.8712 C8.41215,370.5462 9.42215,373.1562 10.92715,375.4162 C14.12215,380.2062 19.04215,383.2612 24.67715,384.3712 C31.02715,385.6162 37.57215,385.3212 44.00215,385.0912 C50.97715,384.8412 57.95715,384.6162 64.93215,384.3262 C72.23465,384.0247 79.53665,383.7147 86.83915,383.4032 C86.59765,375.9187 86.30965,368.4367 85.98415,360.9557 C84.22365,320.5137 81.45115,280.0477 81.37765,239.5527 C81.23615,239.4697 81.09715,239.3712 80.96415,239.2422 C77.67665,236.0647 73.64065,233.9777 69.84865,231.4907 C67.70265,230.0832 69.70865,226.6212 71.86765,228.0372 C75.06465,230.1337 78.39615,231.9967 81.39215,234.3462 C81.40965,230.1307 81.44665,225.9157 81.53015,221.6997 C81.58115,219.1252 85.58115,219.1252 85.53015,221.6997 C85.27915,234.4052 85.36315,247.1137 85.65065,259.8177 C86.58115,300.9867 89.50615,342.0792 90.83815,383.2322 C110.43815,382.3947 130.03915,381.5512 149.64215,380.8357 C165.58715,380.2562 181.53215,379.6762 197.47715,379.0962 C200.82215,378.9767 202.70215,376.5857 203.11215,373.4607 C203.86215,367.7107 202.45215,361.7662 199.26215,356.9312 C198.93215,356.4312 198.54215,355.9862 198.10715,355.6062 C198.18215,352.1612 198.32215,348.7107 198.12715,345.2662 C197.83715,340.0062 197.40215,334.7462 197.02215,329.4912 C196.25215,318.9662 195.65715,308.4212 195.42215,297.8712 C194.94215,276.7712 195.29215,255.6512 196.48715,234.5812 C198.88215,192.4862 204.45715,150.6612 213.58215,109.4862 C214.24715,106.4862 214.91715,103.4862 215.61215,100.4912 C222.70715,104.1762 231.33715,105.5007 239.09215,105.5512 C248.81215,105.6112 258.31715,103.3757 267.09715,99.3117 C267.03715,99.7662 266.97715,100.2162 266.92215,100.6712 C264.47215,120.1712 262.40715,139.7107 260.60715,159.2762 C257.01715,198.2812 254.81715,237.4462 255.12215,276.6257 C255.20715,287.4812 255.62215,298.3012 256.13715,309.1412 C256.66215,320.1662 257.46715,331.8162 260.53715,342.4512 C260.87715,343.6257 261.63215,344.3012 262.50215,344.5462 C262.54715,346.0962 262.64715,347.6512 262.75715,349.1812 C263.11215,354.1562 264.12715,364.4912 266.29715,369.0007 C268.41215,373.4012 271.93715,376.8912 276.43215,378.8117 C282.14215,381.2462 288.31715,380.5462 294.34715,380.1562 C320.56715,378.4462 346.76715,376.1562 372.97215,374.1462 C376.62215,373.8662 380.27215,373.5912 383.91715,373.3062 C387.16215,373.0562 390.51715,372.8357 393.39715,371.1512 C396.67215,369.2362 399.22715,359.8312 398.09715,355.9412 C397.89215,355.2312 397.58215,354.5312 397.17215,353.9012" id="ðŸ–-Ink" fill="#000000"></path>
    </g>
</svg>