<?xml version="1.0" encoding="UTF-8"?>
<svg width="385px" height="388px" viewBox="0 0 385 388" version="1.1" xmlns="http://www.w3.org/2000/svg" xmlns:xlink="http://www.w3.org/1999/xlink">
    <!-- Generator: Sketch 61.2 (89653) - https://sketch.com -->
    <title>openpeeps / cloth / Shirt and Coat</title>
    <desc>Created with Sketch.</desc>
    <g id="openpeeps-/-cloth-/-Shirt-and-Coat" stroke="none" stroke-width="1" fill="none" fill-rule="evenodd">
        <path d="M381.93955,345.1904 C381.14205,330.3734 380.16205,315.5679 378.98905,300.7754 C376.65155,271.3104 373.59105,241.8224 368.49805,212.6959 C363.47355,183.9579 356.44155,156.0134 346.31055,128.6289 C341.61055,115.9239 336.52055,105.0854 329.13655,93.6644 C322.15455,82.8659 313.24505,75.5489 302.14505,69.0304 C292.14405,63.1574 280.52555,52.9674 270.93355,46.3904 C266.92905,43.6449 258.69005,43.8279 255.94405,39.7664 C252.34805,34.4479 254.67955,26.3074 251.05455,21.0064 C246.91105,14.9454 241.10605,10.2369 234.56005,6.8164 C227.41555,1.9784 219.00055,-0.2116 210.56305,0.0899 C198.12105,-0.6646 185.59005,3.2964 177.60205,13.4234 C173.61605,18.4774 171.28855,24.3084 170.96655,30.7649 C170.88255,32.4444 171.42205,33.7684 172.31005,34.7244 C171.78355,35.4284 171.25955,36.1329 170.73905,36.8414 C169.10505,34.4214 165.28605,33.1354 162.74105,34.9619 C154.41505,40.9384 145.41655,45.6904 135.91905,49.1739 C133.69705,48.1224 131.00705,48.6094 129.10355,50.3259 C128.33105,51.0219 127.51155,51.6174 126.65505,52.1229 C123.13355,53.0774 119.55755,53.8749 115.92855,54.4914 C114.79255,54.6839 113.83005,55.3289 113.10005,56.1984 C112.01855,55.1874 110.53205,54.7019 108.87205,55.3349 C89.70455,62.6414 71.60355,73.9919 57.84505,89.3699 C42.60205,106.4064 34.59605,127.5989 28.50105,149.3109 C21.90305,172.8144 17.68655,196.9029 14.14505,221.0319 C10.55655,245.4804 7.02205,270.0244 4.55305,294.6144 C3.16355,308.4524 2.63355,322.4159 3.26255,336.3149 C3.57605,343.2609 4.21055,350.1849 5.22105,357.0649 C5.45655,358.6744 5.70305,360.5284 6.10005,362.3789 C4.89355,362.1444 3.45655,363.1644 3.70105,364.7969 C5.40405,376.1674 19.15105,379.4794 28.63205,380.7884 C44.14055,382.9299 59.72955,384.1174 75.38705,384.2089 C90.77355,384.2984 106.15755,383.3109 121.51205,382.4264 C137.25405,381.5199 152.99555,380.6089 168.73705,379.6859 C231.80655,375.9884 294.87955,372.3309 357.94955,368.6319 C363.71155,368.2939 370.29105,367.8364 375.22655,364.4944 C381.99205,359.9124 382.34005,352.6314 381.93955,345.1904 L381.93955,345.1904 Z" id="ðŸŽ¨-Background" fill="#FFFFFF"></path>
        <path d="M74.4777,218.0124 C74.2587,217.6024 74.7667,217.2339 75.1037,217.5294 C82.7602,224.2484 86.7687,235.0389 87.6092,245.0129 C88.4997,255.5894 87.2372,266.5399 86.7547,277.1119 C86.2177,288.8879 85.7352,300.6684 85.0797,312.4389 C84.4142,324.3809 83.6972,336.3189 83.0827,348.2634 L81.7002,375.1324 L81.7002,375.1324 C81.5532,377.9959 81.8717,381.5174 80.7727,384.1899 C79.0697108,388.332868 74.011067,387.69141 72.9479415,384.228808 L72.9147,384.1149 L72.8177,384.1899 C71.8797,381.0694 72.5817,377.3634 72.7407,374.1369 L74.1892,344.7804 L74.1892,344.7804 C75.2125,324.03045 76.125235,303.280095 77.2244725,282.534073 L77.5982,275.6189 C78.1121,266.30975 78.50612,257.02409 78.822542,247.717815 L78.9252,244.6149 C79.2257,235.2709 78.9872,226.4494 74.4777,218.0124 Z M260.0826,45.75545 C264.3481,45.35045 267.5691,46.76495 271.4416,48.25495 C273.1286,48.90345 274.7261,49.65295 276.3446,50.42895 C278.370782,51.4004652 279.673797,53.1181842 280.921608,54.934304 L281.5886,55.91295 C286.7841,63.52495 290.2791,72.30695 294.2226,80.59445 C298.8356,90.28895 303.4946,99.96245 308.0091,109.70295 L310.237026,114.501894 C311.350748,116.901478 312.461179,119.302561 313.55513,121.711144 L315.445318,125.903174 C317.344088,130.15459 319.046427,134.652166 316.3401,139.03795 C313.8236,143.11695 309.3621,146.27295 305.8296,149.42595 C302.8826,152.05695 299.9351,154.68745 296.9866,157.31745 C303.0811,163.42045 307.1726,171.10495 309.5776,179.34595 C312.9946,177.92245 317.1651,177.64945 320.6981,177.03345 C325.6436,176.17145 326.2496,183.65845 321.5821,183.56695 C318.1351,183.49945 314.0911,183.85145 310.5551,183.12545 C311.1696,185.83345 311.6156,188.58245 311.8991,191.33895 C313.384893,205.786623 310.138061,220.31814 306.751655,234.296779 L306.4731,235.44445 C302.7956,250.57445 299.3086,265.74395 296.1891,280.99945 C293.0626,296.28745 290.2501,311.63995 287.7536,327.04345 C285.2126,342.72195 283.4146,358.48695 281.4821,374.24845 C281.1896,376.63395 279.6886,378.67845 277.0526,378.67845 C274.8566,378.67845 272.3466,376.62895 272.6226,374.24845 C274.6166,357.08445 277.4446,340.01045 280.2541,322.96395 C285.093254,293.607488 291.183684,264.506409 298.19053,235.596422 L299.414507,230.561898 C302.566918,217.504576 305.426751,204.050463 303.8456,190.58195 C302.55761,179.61473 297.972074,167.921256 288.909107,161.109371 L288.6331,160.90445 C286.5161,159.35195 285.7016,156.38295 287.7866,154.33845 C289.113433,153.037283 290.441822,151.737672 291.770989,150.438876 L299.7491,142.64995 L301.357555,141.076819 C302.698692,139.767358 304.046243,138.465879 305.4341,137.20445 C306.2741,136.44145 308.5516,134.98645 308.7181,133.73145 C308.826273,132.912219 307.856414,131.473536 307.463388,130.719113 L305.6626,127.08445 L305.6626,127.08445 C304.6401,125.01195 303.6491,122.92445 302.6506,120.83995 C300.5816,116.52195 298.4826,112.21695 296.4586,107.87745 L284.2981,81.82145 L284.2981,81.82145 C280.8676,74.47045 277.8116,66.70995 273.3266,59.91395 L272.442294,58.5894438 C271.704142,57.4739716 271.052156,56.4002278 270.5856,55.03595 C270.1371,53.72345 269.5741,52.28245 268.7451,51.16245 C266.8026,48.53395 263.0896,47.04295 259.9831,46.49245 C259.5341,46.41245 259.6971,45.79245 260.0826,45.75545 Z M166.55585,38.9117827 C166.82585,38.9117827 166.86685,39.2973 166.61785,39.3723 C162.86985,40.4993 159.28835,42.3178 156.36635,44.9428 C154.96835,46.1988 153.56085,47.6243 152.69785,49.3153 C152.36755,49.9624 152.18467,50.64595 152.050795,51.3546505 L152.00785,51.5918 C151.785218,52.8721684 151.466554,53.5848637 150.815906,54.609915 L150.70435,54.7838 C146.99085,60.5183 144.38835,66.8878 142.00885,73.2653 L136.826913,87.17105 L136.826913,87.17105 L131.64835,101.0783 C129.97985,105.5593 128.31035,110.0408 126.64135,114.5218 C125.71935,116.9958 124.77135,119.4593 123.82385,121.9233 C123.41385,122.9908 122.97285,124.0503 122.59785,125.1308 C122.54635,125.2783 122.38235,126.1678 122.25935,126.3838 L122.30135,126.4573 L122.30135,126.4573 C123.34585,128.2143 126.13135,129.6823 127.71035,130.9588 L133.14735,135.3543 L133.14735,135.3543 C137.02385,138.4888 140.99985,141.5353 144.75985,144.8098 C147.12185,146.8658 145.65235,150.5478 143.01835,151.4063 C138.60435,152.8443 134.27985,154.5653 129.93185,156.1923 C128.1755,156.8493 126.346655,157.42125 124.610798,158.145804 L123.554112,158.60247 C123.141378,158.788046 123.339805,158.786315 123.35635,159.5478 C123.37285,160.3468 123.59935,161.1793 123.72935,161.9643 C125.19385,170.8193 126.74635,179.6593 128.38485,188.4838 C134.18085,219.6893 141.10535,250.6668 149.00285,281.4063 C152.99185,296.9298 157.26985,312.3768 161.34635,327.8773 C165.41285,343.3363 170.76335,358.5738 175.87235,373.7143 C177.31385,377.983849 170.54335,379.8223 169.13735,375.5708 C163.24935,357.7638 157.86285,339.8013 152.30035,321.8933 C142.41735,290.0733 134.62935,257.5623 127.74135,224.9728 C124.32735,208.8208 121.20485,192.6068 118.37685,176.3418 C117.84135,173.262675 117.316256,170.181581 116.801991,167.09873 L116.052441,162.564133 C115.538624,159.331984 115.246063,155.965202 117.75835,153.4073 C120.211517,150.910693 124.422872,150.025997 127.650944,148.85502 L127.88535,148.7688 C129.93935,148.0023 132.00835,147.2638 134.06935,146.5023 C131.03335,144.1123 128.03485,141.6693 125.00635,139.2808 C122.56335,137.3538 120.08185,135.4658 117.67385,133.4948 C115.68835,131.8688 114.06935,129.7813 113.86235,127.1373 C113.651163,124.434972 114.809212,121.927378 115.743215,119.449052 L115.83285,119.2093 C116.74985,116.7348 117.66935,114.2618 118.61235,111.7968 L124.44735,96.5373 L124.44735,96.5373 C128.15535,86.8408 131.70685,77.0658 135.60685,67.4448 C137.14985,63.6373 138.83135,59.8898 140.81835,56.2908 C141.77635,54.5553 142.80385,52.8568 143.92035,51.2188 C145.17135,49.3818 146.30685,48.4863 148.24535,47.4728 C151.34485,45.8523 153.77735,43.1353 156.88985,41.4648 C159.94485,39.8248 163.08785,38.9498 166.55585,38.9117827 Z M176.61805,21.61255 C176.73655,21.40905 177.05055,21.4995371 177.05455,21.73105 C177.13555,26.55005 175.99055,31.47455 175.28605,36.23955 C174.57855,41.02155 174.35155,46.06905 173.32805,50.80005 C173.30685,51.02045 173.26421,51.23765 173.20397,51.450882 L173.15505,51.61305 L173.15505,51.61305 C172.72305,52.93855 171.59955,54.06205 170.22105,54.41305 C170.65455,56.81505 171.06305,59.22105 171.40655,61.64005 C171.99655,65.7979071 172.535019,69.9618867 173.064597,74.1272512 L173.69855,79.12605 C174.29705,83.83705 174.87905,88.55005 175.45455,93.26355 C176.91805,93.87555 178.41155,94.38055 179.94105,94.81805 C183.46355,95.82605 187.07155,96.23605 190.70655,96.59255 C198.109283,97.3186833 205.568639,97.6549944 212.997622,98.0673536 L214.58905,98.15705 C222.94105,98.63555 231.33855,98.72055 239.66955,97.86355 C243.80055,97.43855 247.89905,96.72555 251.92755,95.71505 C253.97455,95.20155 255.96405,94.43455 258.00705,93.93255 C258.68455,93.76605 259.29005,93.38205 259.96905,92.97205 C260.27055,92.59105 260.69355,92.30255 261.24455,92.19105 L261.3938,92.16505 L261.3938,92.16505 L261.54155,92.14355 L261.59255,92.12055 L261.58855,92.13655 C262.00655,92.08005 262.40355,92.08055 262.77805,92.13155 C262.92705,88.45655 263.08855,84.78155 263.29105,81.10755 C263.83455,71.23955 265.33505,60.94555 263.33205,51.16355 C263.26505,50.83455 263.71255,50.71855 263.82905,51.02655 C267.75955,61.38205 267.31805,72.70555 267.51605,83.60455 C267.70955,94.26305 267.59255,104.92905 267.53955,115.59005 C268.30305,115.91505 268.98405,116.35555 269.52355,116.97355 C270.60105,118.20855 270.91105,120.35555 269.52355,121.54755 C268.90855,122.07605 268.22805,122.44305 267.50605,122.69755 C267.46755,131.95905 267.40205,141.22155 267.30905,150.48355 C269.07055,151.84405 269.23505,155.07455 267.24255,156.41705 C266.91105,186.41105 266.36605,216.40605 265.91405,246.39555 L264.96705,309.31455 L264.96705,309.31455 C264.84105,317.69755 264.63205,326.08005 264.55705,334.46205 L264.61655,334.48555 L264.61655,334.48555 L264.826145,334.58272 C265.179071,334.748384 265.704175,335.016331 265.81305,335.29055 C265.84155,335.36255 265.84905,335.41155 265.84555,335.44855 C266.42355,335.52955 266.99605,335.80255 267.49155,336.27255 C268.71455,337.43455 268.46605,339.18605 267.49155,340.36955 L267.23105,340.68605 L267.23105,340.68605 C266.62355,341.42355 265.47005,341.70755 264.52805,341.55755 C264.53755,346.78905 264.57105,352.02155 264.55455,357.25305 C264.54915,358.85085 264.52503,360.44883 264.497418,362.046774 L264.431526,365.878319 C264.387773,368.064724 264.194095,370.843277 261.95455,371.82555 C259.42805,372.93405 257.16255,372.02605 256.13955,369.46005 C255.86255,368.76505 255.92205,368.11755 256.02305,367.43055 C255.99155,366.39805 255.83005,365.20155 255.85005,364.24355 L255.93355,360.24905 L255.93355,360.24905 C255.94655,359.63305 255.97155,359.01755 255.98905,358.40155 L255.91605,358.40905 L255.91605,358.40905 C246.938787,358.844839 237.898698,358.63218 228.906744,358.626869 L224.907616,358.632683 C221.570856,358.635547 218.226955,358.617735 214.894955,358.490195 L213.64605,358.43705 C211.15155,358.32005 208.52805,358.28255 205.94205,358.05955 C206.27155,360.71405 206.57955,363.37055 206.85405,366.02955 C207.11405,368.55105 204.51155,370.69355 202.19005,370.69355 C199.43305,370.69355 197.85605,368.52655 197.52605,366.02955 C195.96805,354.25155 195.33055,342.36355 193.84205,330.57805 C192.5087,320.02195 191.35274,309.441955 190.177705,298.865767 L189.78505,295.34055 C185.484896,256.852396 181.309997,218.349757 177.316588,179.8287 L175.457234,161.821148 C173.579354,143.671212 171.690483,125.52015 170.09755,107.34355 C169.18655,96.95155 168.34705,86.55755 167.55705,76.15555 C166.97755,68.51355 166.61355,60.91405 166.37655,53.28705 C165.44205,52.32555 164.97355,50.92155 165.38755,49.47155 C165.62955,48.62555 165.91105,47.78405 166.20805,46.94405 C166.18955,46.11855 166.17005,45.29355 166.15405,44.46705 C166.13905,43.68505 166.93305,43.28255 167.56855,43.41205 C168.72355,40.61555 169.99555,37.84305 171.05705,35.07355 C172.77505,30.59055 174.19105,25.76005 176.61805,21.61255 Z M80.6705,70.0632 C98.63,58.8082 120.008,50.7092 141.4195,51.5812 C141.9065,51.6012 142.0435,52.3432 141.538,52.4557 C130.117,55.0057 118.5705,58.1117 107.758,62.6322 C96.914,67.1662 86.603,73.2712 77.4195,80.6077 C60.4755,94.1437 47.3055,111.7502 38.6335,131.5967 C33.554,143.2227 29.9935,155.4967 26.8845,167.7752 C23.5945,180.7697 20.883,193.9042 18.6285,207.1177 C14.1755,233.2182 11.583,259.6062 10.2035,286.0397 C8.8,312.9287 9.3785,339.8367 8.3775,366.7297 C8.2045,371.3892 1.5445,371.2982 1.206,366.7297 C-1.062,336.1542 0.1945,305.0907 2.292,274.5367 C4.178,247.0697 7.4715,219.6602 12.775,192.6352 L13.2369634,190.293025 C18.1948953,165.289733 24.1750606,139.680594 36.161,117.0372 C46.394,97.7057 62.192,81.6442 80.6705,70.0632 Z M330.06515,189.5618 C330.15865,189.2938 330.51265,189.2973 330.60715,189.5618 C332.65465,195.29285 332.728177,201.759684 333.272323,207.800946 L333.31515,208.2648 C333.836928,213.775022 334.229915,219.29196 334.595249,224.813508 L334.73115,226.8843 C336.19765,249.4093 338.03065,271.9093 340.79315,294.3158 C343.54565,316.6378 347.26715,338.8043 351.29165,360.9268 C351.74015,363.3898 350.64915,365.8988 348.06615,366.6083 C345.78915,367.2338 342.86615,365.8313 342.38465,363.3828 C339.88615,350.6848 337.86565,337.9698 336.06315,325.1618 C332.89015,302.6083 330.52215,279.9508 328.99965,257.2258 C328.23565,245.8123 327.76515,234.4033 327.57815,222.9653 C327.491793,217.658514 327.629619,212.338795 327.912365,207.037367 L327.98015,205.8143 C328.29215,200.3958 328.26015,194.7293 330.06515,189.5618 Z M136.00165,333.03305 C136.24165,332.90305 136.53865,333.17005 136.38665,333.41805 C132.90915,339.06955 128.20465,343.94255 123.65765,348.74555 C118.90415,353.76605 114.26815,358.93805 109.41865,363.86005 C105.91465,367.41555 100.27815,361.68005 103.97615,358.41755 C109.17565,353.83155 114.61015,349.47355 119.90215,344.98955 L122.216474,343.027856 C126.555468,339.362284 131.023165,335.729535 136.00165,333.03305 Z M301.1723,330.2026 C300.9128,329.7081 301.5058,329.3071 301.9088,329.6346 C304.7138,331.9156 307.2278,334.6366 309.9363,337.0436 C312.6188,339.4281 315.4013,341.6521 318.2598,343.8211 C321.1303,345.9991 324.0633,348.0901 327.0753,350.0686 C329.5738,351.7096 332.1488,353.0241 334.7653,354.3866 C335.9768,354.5426 337.0988,355.1371 337.9968,356.2646 C339.4168,358.0476 339.5678,361.4096 337.5983,362.9576 L337.2448,363.2351 L337.2448,363.2351 C334.9463,365.0416 332.2178,365.2616 329.9553,363.2351 C327.428936,360.972827 325.041002,358.483282 322.614939,356.092534 L321.8858,355.3786 C319.2788,352.8446 316.7353,350.2286 314.3373,347.4951 L312.166427,345.025671 C308.13914,340.433153 303.947262,335.483446 301.1723,330.2026 Z M288.25115,65.43565 C287.78465,65.12665 288.07215,64.29465 288.64815,64.49315 L289.704649,64.8582997 C294.118498,66.3920814 298.661743,68.0930759 302.66915,70.45465 C306.97565,72.99215 310.95215,76.01515 314.75115,79.25815 C322.61465,85.97065 329.30465,94.22515 334.99015,102.82865 C346.39815,120.09315 353.45315,139.86515 359.14915,159.64865 C365.22265,180.74265 369.89865,202.29065 373.71665,223.89965 C377.59615,245.86015 380.58915,268.01865 382.55615,290.23315 C383.52515,301.17615 384.17565,312.12565 384.50265,323.10665 C384.67115,328.75565 384.66565,334.40065 384.61865,340.05165 C384.60665,341.5049 384.616275,342.9574 384.632775,344.4099 L384.68815,348.76815 C384.71765,351.52365 385.04765,354.41915 384.39265,357.11115 C383.33865,361.44465 376.17365,360.63615 376.40915,356.20715 C376.19315,354.73365 376.18465,353.21065 376.24065,351.68465 C376.20665,351.48765 376.16965,351.28765 376.12865,351.08315 C376.01115,350.49765 376.11115,349.95565 376.34115,349.48965 C376.37815,348.75765 376.41165,348.03015 376.42365,347.31515 C376.47065,344.40565 376.46765,341.50765 376.38715,338.59915 C376.21765,332.46615 375.97365,326.33315 375.72715,320.20315 C375.23465,307.95315 374.54965,295.69765 373.55665,283.47765 C370.10165,240.94265 362.80615,198.16515 350.55165,157.24365 C344.86015,138.24065 337.01365,119.58615 325.76115,103.16515 C320.76615,95.87515 315.13065,89.14165 308.88315,82.89215 C302.59615,76.60365 295.66815,70.34765 288.25115,65.43565 Z M203.45755,339.63555 L204.306678,345.777918 C204.73113,348.84963 205.15155,351.92235 205.55055,354.99705 C208.26105,354.62605 211.03405,354.47055 213.64605,354.23905 C218.21855,353.83405 222.82255,353.63805 227.40855,353.44855 C236.89205,353.05755 246.42305,352.37905 255.91605,352.42655 C256.01355,352.42705 256.10555,352.43355 256.19755,352.44105 L256.66855,340.32155 L256.66855,340.32155 L249.99855,340.31105 L249.99855,340.31105 C244.34755,340.30205 238.69755,340.25405 233.04655,340.20555 C227.957113,340.1618 222.865761,340.1548 217.777185,340.048891 L215.59655,339.99705 C211.73755,339.89305 207.47655,340.10755 203.45755,339.63555 Z M257.22805,322.04405 C256.95605,322.07605 256.67905,322.10305 256.38455,322.11555 C255.06355,322.17105 253.73205,322.13255 252.41005,322.14355 C249.59505,322.16805 246.78055,322.18705 243.96505,322.18655 C238.33505,322.18605 232.70555,322.22005 227.07655,322.28805 C221.28155,322.35805 215.49055,322.45855 209.69505,322.47005 C206.88705,322.47505 204.08805,322.40055 201.28105,322.32205 C201.73505,326.31105 202.20955,330.29705 202.73355,334.27355 C207.092529,333.684654 211.780756,333.981558 216.040873,333.940872 L216.59405,333.93355 C222.40855,333.83405 228.22805,333.90755 234.04405,333.91455 C240.02705,333.92155 246.00955,333.94105 251.99305,333.99005 L256.90855,334.03055 L256.90855,334.03055 L256.91805,333.78305 L256.91805,333.78305 C257.06205,329.87405 257.15505,325.96005 257.22805,322.04405 Z M199.11855,302.96105 C199.66355,307.66955 200.17505,312.38605 200.69655,317.10105 C201.04305,317.04755 201.39405,317.00155 201.75155,316.96405 C204.56355,316.67005 207.36955,316.41805 210.19155,316.24305 C215.81705,315.89455 221.44205,315.71055 227.07655,315.55955 C232.87055,315.40405 238.66555,315.28505 244.46155,315.20305 C247.27755,315.16355 250.09105,315.16755 252.90705,315.18705 C254.22805,315.19605 255.56255,315.15455 256.88105,315.24305 C257.03805,315.25355 257.18855,315.27005 257.33755,315.28705 L257.43655,308.208013 C257.453606,307.028383 257.471383,305.848883 257.49055,304.66955 C253.138336,304.937907 248.713693,304.835499 244.364743,304.836714 L243.36255,304.83905 C237.89805,304.86405 232.43155,304.78905 226.96805,304.67555 C221.33155,304.55805 215.70655,304.37405 210.08005,304.01305 C207.800479,303.867336 205.537438,303.673132 203.270461,303.423196 L202.13655,303.29355 C201.15005,303.17705 200.13405,303.08305 199.11855,302.96105 Z M257.93955,282.98405 C247.458121,283.815955 237.032475,284.163506 226.523101,284.26685 L224.94605,284.28055 C215.65905,284.35105 206.29555,284.73405 196.98655,284.48805 C197.54305,289.31355 198.09805,294.13905 198.65755,298.96355 C199.99055,298.90155 201.33005,298.90105 202.63305,298.85405 C205.28355,298.75855 207.92505,298.73455 210.57705,298.72855 C216.04055,298.71605 221.50405,298.76355 226.96805,298.75255 C232.59905,298.74055 238.22905,298.64555 243.85905,298.53955 C248.42355,298.45405 253.03655,298.11055 257.61355,298.12305 L257.93955,282.98405 L257.93955,282.98405 Z M258.38305,262.39705 C257.168462,262.800344 255.734635,262.826282 254.162439,262.898386 L250.104874,263.100478 C248.22427,263.19265 246.34345,263.27935 244.46155,263.34805 C238.19105,263.57755 231.92055,263.79205 225.64905,263.99155 C219.22255,264.19555 212.76505,264.31405 206.33755,264.11155 C203.18905,264.01205 200.06705,263.84705 196.92805,263.58455 C196.15205,263.51955 195.36105,263.47705 194.56855,263.42105 C195.29905,269.81455 196.03255,276.20705 196.76855,282.59955 C206.03305,281.46255 215.36905,280.75455 224.62205,279.57855 L232.988722,278.510191 C241.351456,277.443081 249.7073,276.3958 258.10055,275.51305 L258.38305,262.39705 L258.38305,262.39705 Z M258.82955,241.58255 C257.047432,242.02255 255.016401,242.000598 253.305044,242.108627 L252.98805,242.13055 C249.74555,242.37655 246.49455,242.49955 243.24455,242.57955 C236.87455,242.73655 230.50055,242.81505 224.12855,242.85405 L220.296834,242.87787 C215.18877,242.90779 210.08365,242.92075 204.97405,242.80155 C201.69655,242.72555 198.42655,242.56505 195.15155,242.40105 C194.17055,242.35155 193.16755,242.31905 192.16155,242.26855 C192.84605,248.32155 193.53755,254.37305 194.22755,260.42505 C195.30355,260.25405 196.38455,260.12405 197.41505,259.95005 C200.05455,259.50405 202.68905,259.14805 205.34755,258.82955 C211.10555,258.13955 216.89355,257.64305 222.67855,257.22405 C228.61755,256.79355 234.56155,256.42955 240.50155,256.01305 L244.708425,255.716488 C246.110675,255.619175 247.51305,255.52505 248.91605,255.43905 C251.31205,255.29205 254.09705,255.45805 256.47355,254.93655 C257.11705,254.66855 257.83155,254.60705 258.54705,254.76005 L258.82955,241.58255 L258.82955,241.58255 Z M259.36905,217.21905 C258.75255,218.00205 257.83155,218.41255 256.73355,218.55455 C251.013994,219.296411 245.147263,219.415673 239.379343,219.765288 L238.36255,219.82955 C232.40705,220.22205 226.44805,220.53005 220.48805,220.84655 C214.36555,221.17155 208.24405,221.43655 202.11655,221.65005 C199.515175,221.740612 196.900784,221.751167 194.295486,221.71789 L193.17955,221.70105 C192.10955,221.68305 190.98905,221.68555 189.86605,221.64905 C190.48755,227.30905 191.11505,232.96855 191.75155,238.62655 C192.89655,238.50205 194.04105,238.40705 195.15155,238.28955 C198.42455,237.94355 201.69355,237.60155 204.97405,237.34305 C211.19005,236.85305 217.41055,236.55855 223.63805,236.25055 C230.00955,235.93505 236.38455,235.72505 242.75705,235.42755 C245.84655,235.28305 248.93505,235.10355 252.01555,234.81955 C254.17455,234.62105 256.73905,233.88605 258.99155,234.15605 C259.11455,228.51005 259.24255,222.86455 259.36905,217.21905 Z M259.87155,195.39405 C259.77405,195.54505 259.66005,195.69105 259.52155,195.82705 C257.00344,198.31478 253.899966,198.122994 250.563134,198.383979 L250.35855,198.40055 C247.08805,198.67555 243.81605,198.93705 240.54205,199.17305 C233.99755,199.64555 227.44005,199.97605 220.88605,200.27055 C214.17855,200.57205 207.42805,200.77955 200.71405,200.64255 C196.41455,200.55455 191.91155,200.57005 187.52605,200.15105 C188.19955,206.38455 188.87705,212.61755 189.55955,218.85005 C190.79255,218.61755 192.03355,218.43955 193.20905,218.25455 C196.17155,217.78855 199.13705,217.32005 202.11655,216.97705 C208.07055,216.29155 214.02605,215.65055 219.99155,215.07205 C225.093217,214.577467 230.193147,214.075244 235.298575,213.623254 L238.36255,213.35855 C244.45405,212.84605 250.62255,212.00105 256.73355,211.87605 C257.74055,211.85555 258.87955,212.40355 259.45655,213.26855 C259.59155,207.31005 259.73155,201.35205 259.87155,195.39405 Z M260.29455,177.72555 C258.73905,177.91455 257.06305,177.80705 255.62755,177.85405 C251.99805,177.97255 248.36805,178.08255 244.73805,178.18955 L222.95755,178.83255 L222.95755,178.83255 C215.54205,179.05105 208.10055,179.21505 200.68205,179.11005 C197.41865,179.06415 194.141075,179.05875 190.87885,178.881346 L189.79205,178.81555 C188.44955,178.72605 186.80205,178.71355 185.19305,178.55005 L187.09255,196.14355 L187.09255,196.14355 C191.456817,195.513083 195.954363,195.27723 200.281521,194.907516 L201.20605,194.82605 C207.58805,194.24455 214.00055,193.86005 220.39405,193.42705 C226.95255,192.98305 233.50155,192.44405 240.05105,191.89255 C243.32455,191.61755 246.59755,191.34305 249.86855,191.04205 L250.272627,191.002265 C253.362522,190.679625 256.268029,189.993258 259.00455,191.81505 C259.40505,192.08105 259.71855,192.43705 259.93305,192.83555 C260.05255,187.79905 260.16955,182.76205 260.29455,177.72555 Z M260.80205,157.19305 C247.53755,157.72705 234.27105,158.13205 220.99655,158.31005 C213.52455,158.41005 206.06205,158.33955 198.59105,158.18355 C195.351494,158.11555 192.085075,157.960636 188.847977,157.712488 L187.63555,157.61505 C186.09655,157.48555 184.47955,157.39155 182.86955,157.23655 C183.53505,163.28555 184.19505,169.33555 184.85005,175.38655 C186.433729,175.092193 188.088973,174.956489 189.476707,174.778873 L189.79205,174.73705 C193.24055,174.26255 196.72155,173.98605 200.18705,173.68105 C206.93505,173.08655 213.71655,172.70355 220.48255,172.37805 C227.41105,172.04455 234.34305,171.76205 241.27255,171.45405 L248.202661,171.143828 C249.357606,171.092717 250.51255,171.042383 251.66755,170.99355 C253.31805,170.92405 254.96805,170.85755 256.61805,170.78905 C257.43205,170.75555 258.27805,170.64505 259.09305,170.68705 L259.324978,170.65589 C259.43191,170.64227 259.52635,170.63135 259.61305,170.62205 C259.834717,170.4533 260.073397,170.313369 260.326198,170.207177 L260.47955,170.14755 L260.80205,157.19305 Z M180.69455,137.73505 C181.31055,143.18055 181.91955,148.62755 182.52055,154.07505 C184.41255,153.85905 186.32705,153.73955 188.13355,153.57705 C191.77605,153.25055 195.43555,152.96455 199.08905,152.79655 L206.390883,152.457457 C211.258328,152.232383 216.12555,152.014717 220.99655,151.83705 C234.32755,151.35055 247.65805,150.79305 260.98105,150.11255 C261.07505,146.41805 261.17205,142.72355 261.27105,139.02905 C260.63155,139.71405 259.70755,140.16455 258.49355,140.16155 C244.50655,140.12405 230.50855,140.20505 216.52305,139.97505 C209.52255,139.85955 202.53005,139.69005 195.53755,139.33105 C192.11605,139.15555 188.67555,138.79755 185.28005,138.32705 C183.83205,138.12655 182.24755,137.98355 180.69455,137.73505 Z M178.45605,118.33055 C179.11355,123.90855 179.75855,129.48855 180.39305,135.06955 C182.13005,134.75955 183.92455,134.59455 185.54505,134.37405 C189.02705,133.90055 192.53055,133.52355 196.03755,133.32555 C202.86155,132.93955 209.68955,132.74505 216.52305,132.60005 C230.50755,132.30305 244.50605,132.30505 258.49355,132.19455 C259.80755,132.18405 260.78305,132.70405 261.42355,133.48005 C261.52055,129.99655 261.62305,126.51305 261.72855,123.02905 C260.37755,122.88655 259.03805,122.68455 257.79855,122.59805 C253.98905,122.33205 250.17805,122.08905 246.36555,121.87055 C238.40955,121.41405 230.44605,121.02455 222.48455,120.67805 C214.52105,120.33155 206.55505,119.99305 198.58905,119.69805 L195.105152,119.570823 C189.565465,119.364775 183.931767,119.104593 178.45605,118.33055 Z M175.95105,97.32205 C176.63555,102.97155 177.30955,108.62205 177.98205,114.27355 L178.18655,116.02255 L178.18655,116.02255 C184.84905,114.72755 191.87055,114.34805 198.58905,114.06255 C206.55655,113.72355 214.51005,113.54905 222.48455,113.57355 C230.45105,113.59755 238.40555,113.78605 246.36555,114.11505 C250.34305,114.27905 254.32005,114.46905 258.29505,114.68505 C259.38805,114.74405 260.66955,114.71255 261.98855,114.73155 C262.01705,113.84355 262.04155,112.95555 262.07205,112.06805 C262.19305,108.47105 262.31155,104.87405 262.43505,101.27755 C259.746457,102.658439 256.250652,103.215424 253.5487,103.803954 L253.24055,103.87205 C248.77905,104.87405 244.22355,105.52355 239.66955,105.92055 C230.72655,106.70055 221.69055,106.40905 212.75605,105.65355 L211.190977,105.519655 C203.345208,104.839378 195.211488,103.977112 187.60555,102.03555 C183.98255,101.11105 180.23705,99.81705 176.99055,97.94155 C176.65305,97.74655 176.30455,97.54005 175.95105,97.32205 Z M251.49475,30.18415 C251.57225,29.87865 252.02975,29.80915 252.18025,30.09465 C253.23675,32.10165 253.62975,34.51065 254.36325,36.66115 C255.15275,38.97315 255.88925,41.30215 256.76025,43.58615 C258.57975,48.35815 260.72625,52.94365 263.28525,57.36415 C265.81975,61.74115 258.72325,64.86565 256.85825,60.07365 C254.93275,55.12865 253.35025,50.01565 252.39275,44.79015 C251.92525,42.24065 251.50875,39.65615 251.37375,37.06565 C251.25725,34.84065 250.94425,32.35465 251.49475,30.18415 Z" id="ðŸ–-Ink" fill="#000000"></path>
    </g>
</svg>