<?xml version="1.0" encoding="UTF-8"?>
<svg width="381px" height="387px" viewBox="0 0 381 387" version="1.1" xmlns="http://www.w3.org/2000/svg" xmlns:xlink="http://www.w3.org/1999/xlink">
    <!-- Generator: Sketch 61.2 (89653) - https://sketch.com -->
    <title>openpeeps / cloth / Striped Tee</title>
    <desc>Created with Sketch.</desc>
    <g id="openpeeps-/-cloth-/-Striped-Tee" stroke="none" stroke-width="1" fill="none" fill-rule="evenodd">
        <path d="M8.73513011,308.878942 C7.23752611,322.60844 3.84515791,337.732597 10.311766,350.686227 C6.23912343,350.868813 9.54295592,352.046871 11.7408424,352.452062 C12.9958485,353.423522 14.6825288,353.808204 16.2686685,353.67314 C24.5039899,355.413964 33.0054187,356.044763 41.3672912,357.029729 C145.768398,365.701833 250.869287,363.398743 355.465472,359.661974 C358.867344,359.514405 361.149764,357.043235 361.41037,353.71466 C365.243916,304.730479 367.151685,255.594727 367.054146,206.460976 C365.350959,189.194304 378.400722,195.931993 371.439414,173.179226 C365.843157,149.180369 357.560317,125.820814 346.998057,103.562281 C339.697112,89.0779267 332.817838,73.8372144 321.68985,61.8260304 C318.173431,61.3403005 315.179724,57.8471475 312.208025,55.8962242 C309.198312,55.3099468 306.967412,52.7542374 303.917182,51.9683655 C298.104337,50.4561498 285.096091,47.2401279 280.145594,51.1079583 C279.950015,51.054433 279.751935,51.0089114 279.556357,50.9533851 C278.587466,52.0278936 277.256429,51.2220123 276.533637,50.2565554 C274.06014,48.3361466 263.248577,48.1386658 262.021583,45.191271 C255.625003,39.388525 253.913564,27.1760842 253.913564,20.031352 C251.5216,17.3435801 251.355983,17.8427163 248.109173,16.422044 C244.92589,12.4066438 241.080339,8.9089886 236.788107,6.15168377 C212.632865,-9.70982233 177.580228,7.00408715 171.925447,34.5736338 C162.986342,41.6519835 153.785131,48.8423862 142.836215,52.5306315 C137.49306,49.7818307 131.406105,48.9044155 125.735318,48.8989129 C121.508113,48.7453402 115.666757,46.3006834 112.919649,50.7497888 C66.7025093,65.880449 38.8092595,109.886774 18.9752601,151.583006 C16.1951389,157.519815 12.8692975,163.735757 13.7201406,170.499458 C14.3048765,178.599791 23.0954218,183.421072 21.4342519,192.005635 C19.0197781,215.61981 16.2731703,239.209973 13.7596566,262.817145 C12.084481,278.170911 10.4098055,293.525177 8.73513011,308.878942 Z" id="ðŸŽ¨-Background" fill="#FFFFFF"></path>
        <path d="M346.897409,196.146784 C343.908784,197.228351 339.719505,198.282417 337.582342,200.726069 C337.336208,198.448927 337.087073,196.172285 336.836937,193.895144 C343.099343,193.746634 349.375257,193.692631 355.641166,193.51762 C352.683557,194.240665 349.760467,195.111219 346.897409,196.146784 M333.138425,339.3797 C330.983253,339.399701 328.821077,339.549711 326.667405,339.633716 C322.519148,339.794226 318.370892,339.952736 314.222135,340.108246 C305.759031,340.425265 297.295928,340.730784 288.831824,341.025303 C272.070706,341.607839 255.307588,342.145372 238.542968,342.638903 C205.01423,343.624464 171.468482,344.221502 137.944246,345.348572 C128.643686,345.661091 119.343627,345.904106 110.051573,346.410138 C105.236454,346.672154 100.398822,346.897668 95.6067153,347.455203 C91.5640162,347.925232 87.5788484,348.718282 83.5586616,349.309318 C83.8283083,344.073492 84.0809457,338.836666 84.3435885,333.601341 C84.5922238,328.648032 84.8243501,323.694224 85.0549755,318.739915 C100.748012,319.560466 116.459559,319.891987 132.173607,320.031996 C148.795648,320.180505 165.412688,320.592531 182.03573,320.624533 C214.944131,320.690037 247.855534,320.276011 280.762934,319.94599 C290.069997,319.851985 299.37806,319.758979 308.685623,319.665473 C313.339155,319.61897 317.993186,319.571967 322.646718,319.524964 C324.969982,319.501963 327.306753,319.551466 329.627515,319.45546 C332.104863,319.352454 333.609181,318.64841 335.407159,316.982306 C336.366181,316.093751 336.406203,314.284138 335.407159,313.402583 C333.964374,312.129004 332.625146,311.151943 330.625058,311.008934 C328.660989,310.868425 326.611375,311.061437 324.641303,311.087439 C320.319952,311.143943 315.998601,311.201446 311.677251,311.25795 C303.36673,311.367456 295.05671,311.476463 286.746189,311.58547 C270.125148,311.803984 253.504106,312.027498 236.884066,312.280513 C220.595205,312.529029 204.304844,312.71404 188.018985,313.123066 C171.390439,313.541592 154.781404,314.297139 138.156861,314.831172 C120.461235,315.399207 102.774614,316.07775 85.1190104,317.404832 C85.5432411,308.221761 85.9339537,299.036689 86.3016537,289.850617 C121.358223,291.757736 156.438806,293.11532 191.553908,293.174824 C228.137808,293.237328 264.719707,292.612289 301.290101,291.65823 C306.443404,291.523221 311.596707,291.387213 316.74901,291.225703 C319.408456,291.142197 322.067903,291.065193 324.72735,290.969187 C326.682413,290.898182 328.691506,290.814677 330.458967,289.880119 C333.946865,288.036004 334.548692,282.651169 330.410441,281.178077 C328.14821,280.373027 325.748405,281.160076 325.198106,283.198703 C325.029014,283.215204 324.867926,283.228705 324.72735,283.234205 C322.732765,283.30921 320.737679,283.364713 318.743595,283.427717 C314.421744,283.564726 310.100393,283.705234 305.778542,283.840743 C297.799702,284.090258 289.820361,284.320773 281.840521,284.531786 C265.548658,284.963313 249.254795,285.314835 232.959431,285.586352 C200.696881,286.123385 168.436833,286.619916 136.178285,287.356962 C119.566249,287.736985 102.959215,288.229516 86.3491795,288.650542 C86.7458953,278.665421 87.1205992,268.680299 87.4582828,258.694177 C87.4978043,257.524105 87.5408277,256.353032 87.5833509,255.182459 C89.9636457,255.705491 92.4009715,255.995009 94.8257905,256.338031 C99.0335794,256.933068 103.254375,257.373595 107.480174,257.819123 C115.442505,258.658675 123.430851,259.173707 131.422698,259.614735 C147.716061,260.512791 164.013927,261.14633 180.324299,261.642861 C212.58835,262.624922 244.892422,262.838935 277.16948,262.728429 C294.696514,262.668925 312.330106,262.899439 329.848635,262.135892 C330.928223,262.43091 332.040828,262.400408 333.116913,262.048886 C334.000394,277.659858 334.933401,293.26733 335.8504,308.876301 C336.469237,319.407457 337.015034,329.974115 337.774947,340.508771 C336.29064,339.778225 334.924397,339.364199 333.138425,339.3797 M29.4072049,180.780827 C26.3335329,179.277734 22.943689,177.906148 20.2302129,175.777016 C17.2640994,173.448871 16.5357032,170.715701 17.447199,167.062473 C17.5152361,166.789456 17.5952796,166.517939 17.6663182,166.245922 C39.523708,166.299426 61.3255675,165.337866 83.173452,164.819334 C105.370527,164.292801 127.559597,163.850273 149.762674,163.725265 C194.042261,163.47625 238.316345,164.474312 282.57492,165.716889 C298.51409,166.163917 314.452761,166.604945 330.392431,167.039972 C330.028733,170.924214 330.16881,174.903961 330.086265,178.760701 C330.013725,182.148412 330.032736,185.541124 330.083263,188.933335 C321.744727,188.912833 313.408192,188.732822 305.068656,188.638816 C284.422925,188.406302 263.788201,188.998839 243.147473,189.470868 C201.867518,190.414927 160.576557,191.157473 119.304606,192.400051 C108.095009,192.737072 96.8133717,192.914583 85.552246,193.394112 C85.1650354,191.563998 84.7353016,189.742885 84.2505379,187.933772 C83.4801188,185.059594 82.6106459,182.10541 80.3068927,180.108785 C80.1963326,180.012279 80.0432493,180.054282 79.9937224,180.191291 C79.1187464,182.614941 79.3398667,185.082595 79.596006,187.622253 C79.7986162,189.628378 79.9356908,191.640003 80.037246,193.654129 C73.034937,194.022152 66.0471359,194.539684 59.0958546,195.315232 C57.1082734,194.333671 55.1196917,193.35411 53.1281083,192.379549 C45.2223078,188.510808 37.314006,184.647068 29.4072049,180.780827 M283.160739,252.94932 C266.852368,253.080828 250.542996,253.094829 234.235125,252.990322 C201.954065,252.783309 169.683511,251.98976 137.409455,251.34872 C128.427069,251.171209 119.456689,250.994698 110.472802,250.994198 C105.821772,250.994198 101.155234,251.0252 96.5092063,251.226713 C93.5851156,251.35372 90.620503,251.372222 87.7099197,251.723243 C88.0611108,242.325158 88.4268097,232.917573 88.4153034,223.514987 C119.205052,228.175778 150.325481,229.455857 181.419395,230.372914 C212.921031,231.301972 244.430171,231.783502 275.945314,231.829505 C284.901686,231.843006 293.858058,231.823005 302.813929,231.770001 C307.125775,231.745 311.438121,231.711998 315.749966,231.671495 C318.067727,231.649494 320.399495,231.696497 322.715255,231.598991 C325.164087,231.495984 326.643392,230.915948 328.353822,229.17484 C329.229299,228.284284 329.273823,226.747189 328.353822,225.860133 C325.300662,222.91645 321.708708,223.55549 317.740049,223.604493 C313.759884,223.653996 309.779719,223.696499 305.799053,223.732501 C297.838723,223.805006 289.877392,223.851008 281.916062,223.87151 C266.326081,223.911012 250.7356,223.851008 235.14612,223.691999 C203.638981,223.369978 172.138846,222.669935 140.639212,221.932389 C123.224739,221.524864 105.813768,221.636871 88.4133023,222.480923 C88.4067988,220.919826 88.3922909,219.358229 88.3617743,217.797132 C88.247212,211.884763 87.6708985,205.972395 86.7694081,200.125531 C95.2970469,200.09603 103.824185,199.914018 112.313303,199.805012 C132.956032,199.540495 153.594259,199.124969 174.234486,198.710943 C194.708624,198.300918 215.182761,197.890392 235.656898,197.479867 C256.118028,197.069841 276.642193,197.040339 297.07881,195.936271 C308.107809,195.340234 319.140811,194.530183 330.178315,194.104657 C330.199827,195.11722 330.221338,196.130283 330.24285,197.142346 C330.508494,209.565619 330.994259,221.976892 331.6211,234.387164 C331.922263,240.350035 332.239936,246.312907 332.566614,252.274778 C332.408528,252.259277 332.24694,252.249776 332.08085,252.248276 C315.785486,252.140269 299.459105,252.817312 283.160739,252.94932 M25.1023632,145.056603 C26.9693788,140.255304 28.997482,135.486508 31.1896745,130.782215 C40.4967373,133.407878 50.4246377,134.762462 60.0298627,135.664019 C70.255425,136.624578 80.5009983,137.164112 90.7685835,137.373625 C111.010595,137.786651 131.252606,136.827091 151.473105,135.992039 C193.063729,134.275432 234.650351,133.021854 276.279996,132.941349 C287.90582,132.918348 299.531144,132.972351 311.155967,133.103359 C316.968129,133.168863 322.780291,133.247368 328.591952,133.346874 C331.581078,133.398378 334.569704,133.454881 337.55883,133.516385 C338.882049,133.543387 340.221278,133.641393 341.543497,133.60139 C343.311959,133.547887 344.603662,133.016354 346.245055,132.376814 C348.12958,131.643268 349.241184,128.494072 346.889405,127.450507 C344.540127,126.407442 342.655102,125.796404 340.049184,125.739901 C337.226649,125.679397 334.403613,125.623394 331.581078,125.57139 C326.433278,125.477384 321.285477,125.39838 316.137677,125.334376 C305.675986,125.203867 295.212795,125.148864 284.750103,125.150364 C264.156401,125.152864 243.562699,125.396379 222.975,125.88041 C181.642516,126.85197 140.402583,129.731649 99.0851075,130.967226 C87.6969126,131.308247 76.2872061,131.374752 64.898511,131.03323 C53.8675105,130.70271 42.8600228,129.774652 31.8425296,129.384128 C35.6480998,121.365629 39.953942,113.556642 44.8125849,106.13168 C63.1790757,106.77672 81.506045,106.299691 99.876538,105.740656 C109.516282,105.447138 119.156025,105.149619 128.794769,104.819098 C133.61439,104.654088 138.434012,104.489078 143.253634,104.324068 C145.580399,104.244063 147.907165,104.164558 150.233931,104.085053 C152.740294,103.999047 155.378229,104.161058 157.812553,103.502517 C158.253293,103.383009 158.603484,103.127993 158.867127,102.802973 C165.346652,106.13468 172.19988,108.762844 179.247213,110.710465 C194.544534,114.938228 210.997484,116.524327 226.81859,115.223246 C239.515497,114.179181 252.16888,111.037986 263.331953,104.887603 C288.542166,107.207247 314.105572,106.117179 339.369314,105.952169 C341.783127,105.936668 342.787174,103.72653 342.383454,101.903417 C350.491364,119.368004 355.862286,138.301683 360.889521,156.717829 C364.01322,168.163042 366.791731,179.679759 369.43667,191.237978 C369.32661,191.247479 369.217051,191.257479 369.107491,191.26798 C369.414158,190.001901 368.724783,188.509308 366.990339,188.469306 C356.765778,188.234791 346.508198,188.821828 336.279634,188.916334 C335.991977,186.359174 335.704321,183.801515 335.401156,181.245356 C334.986931,177.763139 334.493662,174.289423 334.071933,170.807706 C333.91935,169.545128 333.777273,168.326052 333.603678,167.126977 C341.702083,167.346991 349.799988,167.569505 357.898394,167.783018 C363.154253,167.922027 363.144747,159.78652 357.898394,159.62651 C313.396186,158.264426 268.891977,156.88834 224.374761,156.133293 C179.83053,155.377246 135.132716,154.911217 90.6225041,157.193859 C66.3668098,158.436936 42.1711481,160.09954 18.2171179,164.200795 C20.0776299,157.711391 22.6730417,151.303992 25.1023632,145.056603 M62.9824688,83.2397551 C63.7884072,83.8437927 64.0465476,84.2248164 65.2512029,84.4363296 C66.5574134,84.6648438 67.9006441,84.7378484 69.2193615,84.8668564 C72.0408963,85.1428736 74.8694349,85.24588 77.7004749,85.3798884 C83.35355,85.6484051 89.0061248,85.9324227 94.6632021,86.1044335 C105.892811,86.4449547 117.36305,86.9274847 128.587656,86.4284536 C131.33365,86.306446 132.582829,84.0433051 132.333193,81.9811768 C134.438338,84.586839 136.740091,87.0329913 139.191424,89.2631301 C143.132568,92.8478532 147.386882,96.0255511 151.871822,98.8297256 C148.962239,98.9362323 145.999627,99.3007549 143.253634,99.4187623 C138.600102,99.6177747 133.946571,99.8172871 129.29304,100.0173 C119.486705,100.438326 109.681371,100.890354 99.876538,101.348382 C81.7301669,102.195935 63.6458296,103.251001 45.5684961,104.981109 C50.7313045,97.2261258 56.5144504,89.9111704 62.9824688,83.2397551 M358.328127,120.9086 C350.660957,99.8732906 340.77608,78.0224303 322.987403,63.5745309 C313.843929,56.1480686 303.657388,51.0107488 292.121113,48.5770973 C291.76692,48.5020927 291.625843,49.006124 291.971532,49.1196311 C311.921384,55.6615383 326.684915,72.9716159 336.671847,90.7117203 C338.481331,93.9264204 340.158244,97.2181253 341.744106,100.559333 C341.227825,99.9302941 340.437896,99.5117681 339.369314,99.5297692 C315.778482,99.9257939 291.909998,99.526269 268.372194,101.829912 C268.973021,101.429887 269.573848,101.030363 270.163168,100.609836 C276.593166,96.0295513 282.378813,90.4252024 287.161415,84.0778073 C290.041982,84.8078527 293.074632,84.9858638 296.01373,85.2653812 C299.936364,85.6379044 303.886013,85.808415 307.821153,86.0199282 C311.750291,86.2304413 315.694436,86.2504425 319.628076,86.3454485 C322.331546,86.4109525 327.615921,86.8594805 327.618923,82.7262232 C327.621924,78.5884656 322.332047,79.0264928 319.628076,79.0804962 C315.693936,79.158001 311.751791,79.1695017 307.821153,79.3540132 C304.053104,79.5300242 300.262542,79.6725331 296.505498,80.009554 C294.213751,80.2150668 291.855969,80.3500752 289.551715,80.7140979 C293.301255,75.1222498 296.286379,69.0313706 298.278963,62.6069707 C298.479572,61.9604305 298.545608,61.3563929 298.51259,60.796858 C299.35805,59.9053025 299.897343,58.6837265 299.897343,57.5646568 C299.897343,54.9034911 297.822714,53.3443941 295.397895,53.0668768 C285.800675,51.9703086 275.226923,50.4077113 267.492716,44.1008187 C264.002317,41.2546415 261.19479,37.889932 258.552353,34.2692066 C255.583237,30.1994533 254.470132,25.0721341 254.458626,20.090324 C254.458125,19.8108066 253.994373,19.7263013 253.95185,20.0218197 C252.498559,30.1219485 254.5947,41.6516662 261.847145,49.2191373 C268.968018,56.6490998 278.64078,59.4322731 288.45662,61.0578743 C284.409418,72.6120935 277.729284,82.7612253 268.350683,90.7422222 C257.899998,99.6352758 244.670801,104.391572 231.183465,106.186684 C216.63255,108.123304 201.381754,107.181746 187.07247,104.020549 C173.287971,100.974359 159.803636,95.52702 148.584534,86.8339789 C142.924455,82.4477058 137.717622,77.277384 133.180654,71.7440395 C129.436117,67.1772552 126.565056,62.0844382 123.350807,57.1921336 C135.342831,60.4783382 149.841717,55.9890587 159.886682,49.647664 C165.8034,45.9134315 170.98672,41.2511413 175.245036,35.704796 C177.345178,32.9691257 179.213695,30.0814459 180.754533,26.9937537 C181.555969,25.3876537 182.276361,23.7355509 182.939221,22.0679471 C183.348944,21.037883 183.750663,19.9798171 183.750663,18.8472466 C183.748161,18.0131947 183.538047,17.2361463 183.11982,16.5161015 C182.260352,15.6045447 182.089259,15.3405283 182.60654,15.7225521 C181.762581,13.9954446 179.322754,13.5569173 177.761905,14.452973 C177.180089,14.7874939 175.811844,15.4350342 175.138978,16.5161015 C174.684231,17.247147 174.439598,18.1212014 174.14844,18.9232513 C173.688689,20.1893301 173.225437,21.440908 172.648123,22.6599839 C171.307394,25.4921602 169.699519,28.1953285 167.865522,30.7359867 C164.513198,35.3802758 160.204354,39.5800372 155.510801,42.8577413 C150.583621,46.2984555 145.273232,49.1111306 139.513599,50.8677399 C133.43029,52.7223554 127.409015,53.2763899 121.132601,53.9559322 C121.065564,53.8629264 121.000529,53.7694205 120.933492,53.6769148 C120.812426,53.5099044 120.550784,53.5639078 120.540278,53.7834214 C120.535276,53.888428 120.537777,53.9929345 120.534775,54.097941 C119.639789,54.5174671 119.565748,55.7780456 120.562791,56.2620757 C120.932492,62.064937 123.437855,67.7797927 126.16784,72.8016053 C127.304958,74.8932355 128.589657,76.9198617 129.981414,78.8774836 C129.56969,78.7204738 129.106938,78.6209676 128.587656,78.6009664 C117.359048,78.1709396 105.89181,78.7249741 94.6632021,79.1354996 C89.1717149,79.3365121 83.686231,79.6440313 78.1992462,79.9380496 C75.3712079,80.089059 72.5361657,80.185565 69.7181328,80.4780832 C68.3088662,80.6245923 66.8910949,80.7395995 65.4893324,80.9506126 C65.3877772,80.9661136 65.2932258,80.9821146 65.2041773,80.9981156 C68.6720637,77.5844031 72.3275522,74.3507018 76.1866514,71.3335139 C88.846538,61.4348977 103.386447,53.3698957 118.899886,48.9836226 C119.046966,48.94212 119.025454,48.6906044 118.862866,48.7076054 C88.0070814,51.8613018 62.3046,71.2960116 44.3248196,95.6980307 C34.3483928,109.238374 26.7817768,124.227807 20.270735,139.684269 C16.9889498,147.475254 13.8837606,155.404748 11.2833461,163.451748 C9.96162713,167.541003 9.36580302,171.878773 11.2588328,175.891023 C12.7106225,178.969214 15.3895798,181.256857 18.1976072,183.07397 C18.3842087,183.195478 18.5763132,183.307485 18.7649158,183.425992 C15.8943543,193.421614 13.9713083,203.678253 12.1263046,213.903889 C10.1222145,225.012581 8.37376338,236.167275 6.87194644,247.354472 C3.87031365,269.716364 1.57106293,292.124759 0.567016763,314.671162 C0.28936573,320.90705 0.103764769,327.147439 0.0227206837,333.389327 C-0.017801359,336.511522 -7.53536129e-13,339.633216 0.042731569,342.75541 C0.0912579658,346.249128 -0.381999471,350.191873 1.3974685,353.310067 C3.77526195,357.476327 8.393274,356.042238 10.4243789,353.19306 C10.4538949,353.231563 10.4844115,353.271065 10.5144278,353.310067 C10.698528,352.948045 10.8526118,352.586522 10.9841834,352.2255 C11.2028023,351.74497 11.3453798,351.242939 11.3974082,350.730907 C11.7801163,348.795786 11.636038,346.830664 11.6205295,344.728033 C11.5980173,341.769849 11.6150265,338.811665 11.6235312,335.853481 C11.6400401,330.268633 11.7035747,324.685786 11.8626612,319.101938 C12.1813346,307.938243 12.8036731,296.784049 13.654636,285.647855 C15.3455558,263.526478 17.8399127,241.506607 19.9745739,219.428733 C21.0611649,208.187533 22.3718779,196.917332 22.5980009,185.616128 C25.2329342,187.002715 27.9519133,188.259293 30.5818439,189.597376 C35.4614982,192.080031 40.3406524,194.562685 45.2198065,197.04534 C49.9518806,199.45299 54.6909585,201.845639 59.4320375,204.236787 C64.212638,206.646937 68.961221,209.834136 74.3396467,210.427173 C77.2147107,210.743692 78.2552767,206.872451 76.5613553,205.065339 C74.3491519,202.704192 71.4115539,201.237101 68.4584475,199.863015 C72.3820819,200.006524 76.3107189,200.083529 80.2413571,200.113531 C80.2953865,205.056838 80.1207915,210.010647 79.8726565,214.942954 C79.2623245,227.040707 78.413863,239.116959 77.6104259,251.203211 C75.9405175,276.326275 74.3241383,301.46284 73.0629522,326.609405 C72.7542843,332.769289 72.4451162,338.927672 72.135948,345.086556 C71.9858663,348.080742 71.7772529,351.078929 71.6922066,354.075615 C71.5971549,357.437824 71.6796998,361.652087 74.7928933,363.728216 C76.9920896,365.193807 79.358877,364.503264 81.0097751,362.487139 C83.217476,359.791471 83.2139741,355.885728 83.3915707,352.577522 C83.432593,351.812974 83.4691129,351.048427 83.5086344,350.283879 C86.8804685,350.720406 90.2277894,351.323944 93.6141314,351.653964 C97.7503814,352.056989 101.912646,352.294504 106.066905,352.401011 C114.538013,352.619024 122.995614,352.697029 131.469223,352.697029 C148.238345,352.697529 165.005966,352.411011 181.772587,352.140495 C215.306828,351.599461 248.837068,350.660903 282.359803,349.620838 C291.653358,349.33232 300.946414,349.029801 310.239469,348.714281 C315.051586,348.550271 319.863704,348.383261 324.676322,348.21225 C329.2313,348.05024 334.207507,348.639277 338.216687,346.27563 C338.332751,347.714219 338.450815,349.153309 338.577384,350.590398 C338.818015,353.314068 340.733557,355.653713 343.642639,355.653713 C346.376126,355.653713 348.725404,353.336569 348.707894,350.590398 C347.686839,325.747352 345.477137,300.902305 343.726685,276.101261 C342.11931,253.320843 340.612491,230.508923 338.31374,207.783008 C338.966095,208.204534 339.763029,208.465551 340.70304,208.469551 C343.706174,208.482052 346.703804,206.620436 349.513332,205.630874 C352.348375,204.632812 355.229942,203.768758 358.150531,203.060214 C359.879471,202.640688 361.615416,202.289166 363.356863,201.989647 C363.146248,205.545369 363.200278,209.132592 363.134242,212.675313 C363.032687,218.121152 362.863595,223.564991 362.731022,229.00983 C362.470381,239.737997 362.37783,250.466665 362.172719,261.195333 C361.759494,282.82368 361.079124,304.440525 359.922495,326.04237 C359.604822,331.97824 359.247628,337.912109 358.850912,343.842978 C358.641798,346.973173 358.421678,350.103368 358.190052,353.231563 C357.963429,356.306754 357.433141,359.574457 358.591271,362.522141 C358.628291,362.50064 358.664811,362.480138 358.70133,362.458637 C359.50927,365 363.060702,366.214371 364.738615,363.325691 C367.353537,358.822411 366.750709,352.368509 367.050872,347.302193 C367.373548,341.866355 367.662705,336.428017 367.918844,330.988178 C368.431123,320.107 368.786316,309.222823 368.992428,298.331145 C369.404653,276.544289 369.334615,254.72593 368.00189,232.971076 C367.637191,227.022706 367.126914,221.085336 366.603129,215.149967 C366.210415,210.70069 365.993797,206.129905 365.29942,201.678128 C368.695267,201.177597 372.117628,200.887079 375.573008,200.801574 C378.917327,200.718068 381.074,197.703381 380.365115,194.512682 C374.813595,169.519626 367.090394,144.950097 358.328127,120.9086" id="ðŸ–-Ink" fill="#000000"></path>
    </g>
</svg>